<svg xmlns="http://www.w3.org/2000/svg" viewBox="0 0 65.68 57.34"><defs><style>.cls-1{fill:#450c09;}</style></defs><title>about-min</title><g id="Layer_2" data-name="Layer 2"><g id="_1" data-name="1"><path class="cls-1" d="M61.6,4.72H27.92l-1.2-3.08A2.59,2.59,0,0,0,24.31,0H12.56a2.57,2.57,0,0,0-2.43,1.69L9,4.72H4.08A4.08,4.08,0,0,0,0,8.8V53.26a4.08,4.08,0,0,0,4.08,4.08H61.6a4.08,4.08,0,0,0,4.08-4.08V8.8A4.08,4.08,0,0,0,61.6,4.72ZM32.84,50.84A20.11,20.11,0,1,1,53,30.73,20.12,20.12,0,0,1,32.84,50.84Z"/><path class="cls-1" d="M27.83,40.41a13.88,13.88,0,0,1,.37-3l1.48-7.92H23.9l.7-4.22H35.86L33,40.48l.63.18,5.18-5.29,3,2.63-2.26,2.59C37,43.4,35,44.85,32.41,44.85,29.38,44.85,27.83,43.11,27.83,40.41ZM30.9,20.54a9.68,9.68,0,0,1,.19-1.48c.26-1.55,1.26-2.44,3.48-2.44s3,1,3,2.26a9.64,9.64,0,0,1-.19,1.48c-.26,1.55-1.26,2.44-3.48,2.44S30.9,21.83,30.9,20.54Z"/></g></g></svg>