<svg xmlns="http://www.w3.org/2000/svg" viewBox="0 0 48.8 69.72"><defs><style>.cls-1{fill:#450c09;}</style></defs><title>articles-min</title><g id="Layer_2" data-name="Layer 2"><g id="_4" data-name="4"><path class="cls-1" d="M0,0V69.72H48.8V0ZM45.32,66.23H3.49V3.49H45.32Z"/><rect class="cls-1" x="27.61" y="6.97" width="14.22" height="13.94"/><path class="cls-1" d="M7,34.86H41.83v3.49H7Z"/><path class="cls-1" d="M7,41.83H41.83v3.49H7Z"/><path class="cls-1" d="M7,48.8H41.83v3.49H7Z"/><circle class="cls-1" cx="33.05" cy="24.88" r="1.56"/><circle class="cls-1" cx="29.17" cy="24.88" r="1.56"/><rect class="cls-1" x="11.9" y="61.66" width="25" height="0.94"/><path class="cls-1" d="M7.65,27.19V6.94h7.83c4,0,6.21,2.52,6.21,6.44s-2.23,6.44-6.21,6.44H12v7.37ZM12,16.31h2.35c2,0,2.73-.73,2.73-2.49v-.87c0-1.77-.7-2.49-2.73-2.49H12Z"/></g></g></svg>