<svg xmlns="http://www.w3.org/2000/svg" viewBox="0 0 135.72 89.62"><defs><style>.cls-1{fill:#fff;}.cls-2{fill:#450c09;}</style></defs><title>articles_oxBlood</title><g id="Layer_2" data-name="Layer 2"><g id="articles"><path class="cls-1" d="M13.93,62.19a22.2,22.2,0,0,0,.7,2.13C14.38,63.67,14.15,63,13.93,62.19Zm6.71,6-.13.14.24-.24Zm.69-.86a2.74,2.74,0,0,1-.23.33c.09-.11.18-.24.27-.37S21.35,67.36,21.33,67.37Z"/><path class="cls-2" d="M24.06,60.18c.18-.76.34-1.57.49-2.41C24.4,58.61,24.23,59.42,24.06,60.18Z"/><path class="cls-2" d="M123.67,0H12A12.05,12.05,0,0,0,0,12V77.57a12.05,12.05,0,0,0,12,12H123.67a12.05,12.05,0,0,0,12-12V12A12.05,12.05,0,0,0,123.67,0ZM25.6,46c0,.42,0,.83,0,1.24,0,.26,0,.51,0,.77,0,.48,0,1-.06,1.42s0,1-.09,1.43L25.3,52c0,.35-.06.7-.1,1-.12,1.2-.27,2.36-.44,3.46q-.11.66-.21,1.29c-.15.84-.31,1.65-.49,2.41s-.31,1.3-.48,1.9c-.07.24-.14.47-.2.69-.27.87-.56,1.67-.86,2.38A10.88,10.88,0,0,1,22,66.23c-.09.19-.19.37-.29.54a4.91,4.91,0,0,1-.28.45s-1,1.19-1,1.2a2,2,0,0,0,.08-.26c2.66-8.24,1.77-21.66-1.3-29.47,3.59.57,5.27,1.66,6.31,2.58,0,1.12.07,2.26.07,3.42C25.61,45.11,25.61,45.54,25.6,46ZM16.37,67.7a13.05,13.05,0,0,1-1.74-3.38,22.2,22.2,0,0,1-.7-2.13c-.26-.89-.49-1.85-.71-2.87-.11-.51-.21-1-.3-1.58-.22-1.21-.4-2.5-.56-3.85,0-.26,0-.52-.08-.78-.16-1.5-.27-3.07-.34-4.69,0-.75-.06-1.52-.07-2.3,0-.47,0-1,0-1.43,0-13.54,3.08-24.5,6.88-24.5a2,2,0,0,1,.42,0,1.47,1.47,0,0,1,.28.08,1.36,1.36,0,0,1,.25.11l.16.08a2.67,2.67,0,0,1,.53.39,2,2,0,0,1,.21.2,5,5,0,0,1,.51.58c.1.13.21.27.31.42,1.31,2,2.41,5.36,3.16,9.63,0,.21.08.42.11.64.23,1.41.42,2.92.57,4.5-2.24-1.12-5.76-2.06-11.68-2.06h0c4.71,8.25,8.91,24.77,3.13,33.26C16.57,68,16.47,67.83,16.37,67.7Zm53.11-23c0,.45,0,.9,0,1.34v0a10.65,10.65,0,0,0,6.1,8.28,28.53,28.53,0,0,1-2.48,7.33c-1.31,0-2.62-.06-3.94-.06-1.64,0-3.27,0-4.9.08-1,0-2,.07-3,.13q-4.35.21-8.62.68c-2.46.26-4.89.58-7.31,1a150,150,0,0,0-19.62,4.41c.25-.48.48-1,.7-1.54a29,29,0,0,0,1.09-3.23c.35-1.25.66-2.61.93-4a74.55,74.55,0,0,0,1.18-11.38c0-1,0-2,0-3,0-1.39,0-2.77-.09-4.13a66.08,66.08,0,0,0-2.07-14.28,26.74,26.74,0,0,0-1.7-4.58,147.61,147.61,0,0,0,19.46,4.38c2.41.38,4.85.71,7.3,1q4.17.46,8.42.68c1.18.07,2.37.12,3.57.14,1.53.06,3.08.08,4.63.08q2,0,4-.06A28.78,28.78,0,0,1,75.55,35a10.6,10.6,0,0,0-6.09,8.24h0C69.47,43.75,69.48,44.22,69.48,44.69Zm48,24.67h0a1.35,1.35,0,0,1-.44.07,2.18,2.18,0,0,1-1.49-.69h0a152.48,152.48,0,0,0-35-6.7,39.47,39.47,0,0,0,2-7,10.62,10.62,0,0,0,0-20.61,40,40,0,0,0-2-6.87,151.77,151.77,0,0,0,35-6.75,2.14,2.14,0,0,1,1.37-.57,1.74,1.74,0,0,1,.32,0h0c3.38.66,6.06,11.41,6.06,24.59C123.37,57.83,120.75,68.48,117.43,69.36Z"/></g></g></svg>