<svg xmlns="http://www.w3.org/2000/svg" viewBox="0 0 17.92 11.07"><defs><style>.cls-1{fill:#fff;}</style></defs><title>behance</title><g id="Layer_2" data-name="Layer 2"><g id="Behance"><path class="cls-1" d="M8,1.15A2.75,2.75,0,0,1,8.51,2.8,2.42,2.42,0,0,1,8,4.39,2.61,2.61,0,0,1,7.19,5,2.41,2.41,0,0,1,8.43,6a2.9,2.9,0,0,1,.42,1.59,3.16,3.16,0,0,1-.48,1.72,2.94,2.94,0,0,1-.76.85,3,3,0,0,1-1.22.54,7.35,7.35,0,0,1-1.53.15H0V0H5.22A3.32,3.32,0,0,1,8,1.15Zm-5.87.73V4.26H4.78A2.14,2.14,0,0,0,5.92,4a1,1,0,0,0,.44-1,1,1,0,0,0-.58-1A4.21,4.21,0,0,0,4.5,1.88ZM2.15,6V8.92H4.77a2.53,2.53,0,0,0,1.1-.19,1.36,1.36,0,0,0,.71-1.35,1.15,1.15,0,0,0-.69-1.15A2.79,2.79,0,0,0,4.81,6Z"/><path class="cls-1" d="M15.83,3a3.23,3.23,0,0,1,1.38,1.19,3.88,3.88,0,0,1,.64,1.65,11.23,11.23,0,0,1,.06,1.58H12.1a1.91,1.91,0,0,0,.83,1.68,2.16,2.16,0,0,0,1.16.31A1.76,1.76,0,0,0,15.24,9a1.62,1.62,0,0,0,.43-.55h2.14A2.65,2.65,0,0,1,17,9.9a3.87,3.87,0,0,1-3,1.17,4.33,4.33,0,0,1-2.81-1A3.84,3.84,0,0,1,10,6.89a4.28,4.28,0,0,1,1.1-3.18A3.83,3.83,0,0,1,14,2.6,4.54,4.54,0,0,1,15.83,3ZM12.71,4.78A2.14,2.14,0,0,0,12.15,6h3.6a1.77,1.77,0,0,0-.56-1.26A1.8,1.8,0,0,0,14,4.32,1.62,1.62,0,0,0,12.71,4.78Z"/><rect class="cls-1" x="10" y="0.01" width="7.92" height="1.68"/></g></g></svg>