<svg xmlns="http://www.w3.org/2000/svg" viewBox="0 0 135.73 89.62"><defs><style>.cls-1{fill:#1a2744;}</style></defs><title>contact_twilight</title><g id="Layer_2" data-name="Layer 2"><g id="contact_twilight_" data-name="contact (twilight)"><path class="cls-1" d="M135.71,11.45A12.05,12.05,0,0,0,123.68,0H12A12.05,12.05,0,0,0,0,11.45c0,.2,0,.4,0,.6V77.57c0,.23,0,.46,0,.69a11.91,11.91,0,0,0,2.22,6.3A12,12,0,0,0,12,89.62H123.68a12,12,0,0,0,12-11.55,4.18,4.18,0,0,0,0-.5V12C135.73,11.85,135.73,11.65,135.71,11.45Zm-12.09.61L87.7,40.31l-2.83,2.23L82,44.76,67.87,55.91l-14-11L51,42.63,48.16,40.4l-36-28.34ZM12.12,21,42.5,44.86,12.12,68.75Zm.12,56.59L48.16,49.31l15.38,12.1,4.33,3.4,4.32-3.4L87.7,49.21l36,28.35Zm111.5-8.91L93.36,44.76l30.38-23.9Z"/></g></g></svg>