<svg xmlns="http://www.w3.org/2000/svg" viewBox="0 0 68.33 65.28"><defs><style>.cls-1{fill:#450c09;}</style></defs><title>contact-min</title><g id="Layer_2" data-name="Layer 2"><g id="_2" data-name="2"><path class="cls-1" d="M68,20.17a9,9,0,0,0-8.25-8.61c-1.1-.13-2.82-.21-5-.26V5.66H44.54L35.08,0,25.72,5.66h-10v6.09L14,12.81c-2.42.2-4.72.43-6.86.67C5.12,13.7.71,14.26.2,21S.07,43,3,53.56a8.8,8.8,0,0,0,1.27,3c1.73,2.3,5,2.51,7.9,2.51l23.45.06c1.39,0,2.41,1.22,3.39,2.2a14.28,14.28,0,0,0,17,2c-2.83-.54-5-2-5.77-4.82,0,0,13.34.54,15.08-1.66C69.06,52.07,68.43,28.94,68,20.17Zm-52.33-4.8v3.38l0,0-4.12-.94Zm42.81,2.32-3.15.67-.59.39V15.54ZM56.21,21l3.67-.75.46,25.28L41,31.59l1.17-.81,4-2.79L52,24l2.79-2Zm2.08,26.52H12.41L31.34,33l6.78,0ZM35,4.23l2.48,1.43H32.54ZM18.49,8.45H52V20.68L41.27,28l-3.18,2.18-6.79,0-3-2.2-9.8-7.2ZM23.61,28l3.79,2.79,1.14.84L10.12,45.77V20.28l4.13.87,1.46,1.06,2.78,2Z"/></g></g></svg>