<svg xmlns="http://www.w3.org/2000/svg" viewBox="0 0 135.72 89.62"><defs><style>.cls-1{fill:#450c09;}</style></defs><title>development_oxBlood</title><g id="Layer_2" data-name="Layer 2"><g id="development"><path class="cls-1" d="M123.67,0H12A12.05,12.05,0,0,0,0,12V77.57a12.05,12.05,0,0,0,12,12H123.67a12.05,12.05,0,0,0,12-12V12A12.05,12.05,0,0,0,123.67,0Zm-.31,45.85a3.28,3.28,0,0,1,0,.54,3.86,3.86,0,0,1-.82,1.92,3.92,3.92,0,0,1-3.12,1.54H105c-1.11,0-2.24.08-3.39.08-.93,0-1.84,0-2.74,0-1.08,0-2.19,0-3.32,0-.78,0-1.56,0-2.32,0h-.13c-.77,0-1.54,0-2.33,0s-1.81,0-2.69,0c0,0,0,0,0,0h0a.06.06,0,0,1-.06,0h-.07c-1.51,0-3,0-4.6,0a251.59,251.59,0,0,1-30.54-1.62H23.36v6.34l-.26.43c-.1.17-.19.35-.28.53a10.47,10.47,0,0,0-.71,1.73,11.94,11.94,0,0,0,.5,8.64h.06A1.29,1.29,0,0,1,24,67.27V71.8a1.29,1.29,0,0,1-1.29,1.29H13a1.28,1.28,0,0,1-1.28-1.29V67.27A1.28,1.28,0,0,1,13,66h.21a11.94,11.94,0,0,0,1.08-5,11.81,11.81,0,0,0-.58-3.68,11.33,11.33,0,0,0-.85-2,9.46,9.46,0,0,0-.54-.91V32h2.49a29,29,0,0,1,8.49-18.65l1,1.94a12.53,12.53,0,0,0-3.07,12.22c-.07.78-.11,1.56-.11,2.36s0,1.43.09,2.13h1.64c.16.19.32.38.5.56v8.73H50.9a238.75,238.75,0,0,1,32.39-1.88c1.56,0,3.09,0,4.6,0H88a.06.06,0,0,1,.06,0h0s0,0,0,0c.88,0,1.78,0,2.69,0s1.56,0,2.33,0h.13c.76,0,1.54,0,2.32,0h23.86a4,4,0,0,1,3.36,1.88,3.9,3.9,0,0,1,.6,1.68c0,.15,0,.29,0,.44Z"/></g></g></svg>