<svg xmlns="http://www.w3.org/2000/svg" viewBox="0 0 450.3 38.8"><defs><style>.cls-1{fill:#985724;fill-rule:evenodd;}</style></defs><title>footer-handle</title><g id="Layer_2" data-name="Layer 2"><g id="drawer_handle" data-name="drawer handle"><path class="cls-1" d="M238.85,8.12c-8.25,0-6.6-8.12-13.7-8.12s-5.46,8.12-13.71,8.12C169.82,8.12,179.07,33.32,0,38.8H450.3C271.23,33.32,280.47,8.12,238.85,8.12ZM213.49,22.24a2.84,2.84,0,1,1,2.83-2.84A2.84,2.84,0,0,1,213.49,22.24Zm11.66,0A2.84,2.84,0,1,1,228,19.4,2.84,2.84,0,0,1,225.15,22.24Zm11.66,0a2.84,2.84,0,1,1,2.84-2.84A2.84,2.84,0,0,1,236.81,22.24Z"/></g></g></svg>