<svg xmlns="http://www.w3.org/2000/svg" viewBox="0 0 17.12 17.12"><defs><style>.cls-1{fill:#985617;}</style></defs><title>insta-orange</title><g id="Layer_2" data-name="Layer 2"><g id="Instagram"><path class="cls-1" d="M15,0H2.16A2.16,2.16,0,0,0,0,2.16V15a2.16,2.16,0,0,0,2.16,2.16H15A2.16,2.16,0,0,0,17.12,15V2.16A2.16,2.16,0,0,0,15,0Zm1.16,15A1.16,1.16,0,0,1,15,16.12H2.16A1.16,1.16,0,0,1,1,15V2.16A1.16,1.16,0,0,1,2.16,1H15a1.16,1.16,0,0,1,1.16,1.16Z"/><path class="cls-1" d="M14.13,1.46A1.51,1.51,0,1,0,15.64,3,1.51,1.51,0,0,0,14.13,1.46Zm0,2.27A.76.76,0,1,1,14.89,3,.76.76,0,0,1,14.13,3.73Z"/><path class="cls-1" d="M8.56,4.09A4.47,4.47,0,1,0,13,8.56,4.47,4.47,0,0,0,8.56,4.09Zm0,7.94A3.47,3.47,0,1,1,12,8.56,3.47,3.47,0,0,1,8.56,12Z"/></g></g></svg>