<svg xmlns="http://www.w3.org/2000/svg" viewBox="0 0 11.77 15.19"><defs><style>.cls-1{fill:#fff;}</style></defs><title>pinterest</title><g id="Layer_2" data-name="Layer 2"><g id="Pinterest"><path class="cls-1" d="M2.21,7.37a3.6,3.6,0,0,1,.56-4.48A4.32,4.32,0,0,1,9,2.81c.89,1,.76,3,.05,5A2.4,2.4,0,0,1,6.45,9.49C5.92,9.32,5,8.82,5.67,7.13c.82-2,.9-3.58-.4-3.68-.8-.07-1.45.42-1.78,1.47a3.82,3.82,0,0,0,.17,2.14,12.59,12.59,0,0,1-.34,1.48c-.38,1.43-.6,2.59-.79,3.34a11.24,11.24,0,0,0-.08,2.81c0,.53.19.64.41.34A8.15,8.15,0,0,0,4.3,12.47c.11-.73.51-1.7.64-2.53.52.65.63.71,1.06.86C9.89,12.16,11.47,8,11.72,6.07A5.37,5.37,0,0,0,9.16.76c-3-1.67-7.68-.55-8.88,3C-.42,5.87.27,8,1.4,8.65c.42.25.66.32.88-.31S2.35,7.52,2.21,7.37Z"/></g></g></svg>