<svg xmlns="http://www.w3.org/2000/svg" viewBox="0 0 49 61.36"><defs><style>.cls-1{fill:#450c09;}</style></defs><title>portfolio-min</title><g id="Layer_2" data-name="Layer 2"><g id="_6" data-name="6"><path class="cls-1" d="M47.4,54.3a2.25,2.25,0,0,0,.14-.78,2.46,2.46,0,0,0-2.46-2.46V34.92a1.78,1.78,0,0,0,1.78-1.78,1.75,1.75,0,0,0-.13-.65,2.43,2.43,0,0,0,0-3.62,1.75,1.75,0,0,0,.13-.65,1.78,1.78,0,0,0-1.78-1.78V10.3a2.46,2.46,0,0,0,2.46-2.46,2.25,2.25,0,0,0-.14-.78A3.91,3.91,0,1,0,41.94,1.6a2.25,2.25,0,0,0-.78-.14A2.46,2.46,0,0,0,38.7,3.92H10.3A2.46,2.46,0,0,0,7.84,1.46a2.25,2.25,0,0,0-.78.14A3.91,3.91,0,1,0,1.6,7.06a2.25,2.25,0,0,0-.14.78A2.46,2.46,0,0,0,3.92,10.3V26.44a1.78,1.78,0,0,0-1.78,1.78,1.75,1.75,0,0,0,.13.65,2.43,2.43,0,0,0,0,3.62,1.75,1.75,0,0,0-.13.65,1.78,1.78,0,0,0,1.78,1.78V51.06a2.46,2.46,0,0,0-2.46,2.46,2.25,2.25,0,0,0,.14.78,3.91,3.91,0,1,0,5.46,5.46,2.25,2.25,0,0,0,.78.14,2.46,2.46,0,0,0,2.46-2.46H38.7a2.5,2.5,0,0,0,.06.55,2.47,2.47,0,0,0,2.4,1.91,2.25,2.25,0,0,0,.78-.14A3.91,3.91,0,1,0,47.4,54.3ZM8.92,52.44V8.92H40.08V34.71a12.39,12.39,0,0,0-9.85-5.86,9.87,9.87,0,0,0,4-8.25c0-5.2-3.47-7.17-7.75-7.17s-7.75,2-7.75,7.17c0,4.71,2.85,8.61,6.57,9.3-5,2.33-8.57,8.29-8.57,15.3a19.67,19.67,0,0,0,1.14,6.68c.07.19.15.38.23.56Z"/></g></g></svg>