<svg xmlns="http://www.w3.org/2000/svg" viewBox="0 0 68.19 51.19"><defs><style>.cls-1{fill:#450c09;}</style></defs><title>small-print-min</title><g id="Layer_2" data-name="Layer 2"><g id="_5" data-name="5"><path class="cls-1" d="M20.33.41a7.15,7.15,0,0,0-1.07,2c-.73,1.85-.76,2.39-.12,3s19.3,8.26,20,8.26a1.65,1.65,0,0,0,1.44-.77A15.71,15.71,0,0,0,41.88,9.3,1.66,1.66,0,0,0,41.16,8L31.42,3.92C20.91-.44,21.12-.37,20.33.41Z"/><path class="cls-1" d="M19.37,8.42c-.11.24-1.53,3.66-3.17,7.62-2.92,7-3,7.2-2.69,7.34.63.33,17.16,7.13,17.22,7.08S37.06,15.29,37,15.25s-3.69-1.55-8.17-3.4-8.38-3.46-8.7-3.61L19.57,8Z"/><path class="cls-1" d="M37,24.19l-1,2.35.71.73a17,17,0,0,0,2.05,1.63c1.57,1.05,18.88,9.85,20.38,10.34,4.32,1.45,8.25.12,8.9-3,.53-2.55-1.89-5.82-5.36-7.24-1.07-.43-19-6.28-20.18-6.58a18.17,18.17,0,0,0-3.8-.53H38Z"/><path class="cls-1" d="M10.3,25c-.48.29-.6.48-1.36,2.35-.63,1.52-.68,2.09-.24,2.72.27.4,1.12.79,10,4.48,5.36,2.23,9.91,4,10.13,4a1.78,1.78,0,0,0,1.44-.88,14.47,14.47,0,0,0,1.29-3.61c0-1.07.19-1-10.43-5.36-5.33-2.2-9.85-4-10.06-4A1.85,1.85,0,0,0,10.3,25Z"/><path class="cls-1" d="M3.85,42.24c-1,0-1.62.42-1.64,1.78,0,1-.08,2.46-.08,2.46l-.56.08C.45,46.7.11,47.12,0,47.7a6,6,0,0,0,.4,3.24c.22.32,1.51.24,17.51.24,18.5,0,17.41-.11,17.75-.6a5.12,5.12,0,0,0,.24-3,2.09,2.09,0,0,0-1.55-1l-.56-.08s-.07-.92-.07-2.31-1.54-1.76-2.23-1.76Z"/></g></g></svg>