<svg xmlns="http://www.w3.org/2000/svg" viewBox="0 0 145.49 161.66"><defs><style>.cls-1{fill:none;stroke:#d19a2a;stroke-miterlimit:10;stroke-width:0.25px;fill-rule:evenodd;}</style></defs><title>sqg-outline_1</title><g id="Layer_2" data-name="Layer 2"><g id="Layer_2-2" data-name="Layer 2"><path class="cls-1" d="M102.6,28c-1.07,3.69-6.12,4.65-10.44,3.12C87.48,29.48,83,24.63,79.69,22.5c-12.7,2.1-25.19-1-36.58-2.13-.91,3.89,0,6.31,3.22,8.85,2.2,1.74,12.15,6.32,14.4,7.08C66.9,38.37,80,41.9,87.25,43.38c11.74,2.42,26.07,6,29.73,18,5.67,1.59,24,1.06,26.18-11.25,1.54-8.62-3.56-12.29-5.51-13.63,4.88,2.38,8.45,8.62,7.59,15.26-1.46,11.33-15.17,14.75-27.67,12.5,2.41,17.17-22.83,30.08-41,26.24-1.08,6.24-10.25,27.26-9.24,41.16a32.75,32.75,0,0,0,6.24,16.56c2.59,3.76,7.56,6.62,7.56,13.08-3.23.77-5.87-1-7.56-2.4-5.71-4.83-7.69-15.1-7.75-25-.09-14.22,8.78-38.06,8-48.29-.67-8.75-3.91-14.46-7.67-18.25-3.31-3.34-12.36-5.2-15.83-1.5-3.83,4.08-2.83,9.83,3.42,16.75,2.74,3,7.58,4.95,8.58,7.92.39,1.16-.08.57-.53-.12-1.72-2.63-6.14-3.37-8-3.81C42.92,84.13,32.32,80.83,26.32,72.3c-7.53-10.7-.5-20.5,8.25-24.25,7.8-3.34,19.59-3.93,32.76-1.06,8.81,1.92,31.75,10.54,39.41,12.6-2.11-5.94-8.87-10.14-15.08-13-6.43-2.92-28.25-7.58-37.16-9.37-9.21-1.85-16-4-19.44-8.28-1.77-2.18-1.62-6.41-.35-9-15-2-32.75,6-34.57,26.85,0-21.31,19.32-31.69,36.82-30.1,3.44-3.92,10.13-6.82,15.26-7.34a35.8,35.8,0,0,1,16,2c3.16,1.16,11.05,6.9,11.64,7,1.53.17,4-1.68,5.28-2.76,3.29-2.86,5-10.37,4.08-15.24-.07-.38.11-.32.36-.24C91.77.89,95,5,95,8.82c0,2.58-1.76,4.82-2.76,7.08S89.65,21,90.12,23.46c.35,1.87,5,4.11,6.84,4.8S101.16,29.26,102.6,28Zm-30-11.64c-3.86-3.09-10-6.6-16.2-6.24C50.84,10.47,46,12.48,44,17.24c10.31,1.07,21.12,3.53,32.34,2.14Zm15.24,3.48c-1.14.74-2.66,1.1-3.84,1.8a60.56,60.56,0,0,0,5.52,3.72A39.37,39.37,0,0,1,87.85,19.86ZM44.48,78.63c-2.17-2.72-5.81-9.79-2.09-15.47,4.93-7.53,18.51-7.2,26.26-.61,5.71,4.85,8.42,11.75,8.92,21.63.63,2.88,4.5,4.55,5.63,4.75,17.63,3.13,26.47-17.38,24.63-26.63-4.46-1.54-31-11.2-37.67-12.83-8.79-2.14-20.08-1.42-26.25,1.83-6.79,3.58-14.08,12.25-8.08,23.5C39,80.68,47.51,83.21,54.13,85.21,50,83.31,46.23,80.83,44.48,78.63Z"/></g></g></svg>