<svg xmlns="http://www.w3.org/2000/svg" viewBox="0 0 135.73 89.62"><defs><style>.cls-1{fill:#450c09;}</style></defs><title>terms_left_oxBlood</title><g id="Layer_2" data-name="Layer 2"><g id="Terms_Conditions_left_" data-name="Terms&amp;Conditions (left)"><path class="cls-1" d="M123.68,0H12A12.06,12.06,0,0,0,0,12V77.57a12.06,12.06,0,0,0,12,12H123.68a12.06,12.06,0,0,0,12-12V12A12.06,12.06,0,0,0,123.68,0Zm1.94,49.06a2.88,2.88,0,0,1-4.91,2,2.79,2.79,0,0,1-.76-1.32c-5.07,2.08-13.16,3.42-22.27,3.42s-17-1.3-22.07-3.33a2.87,2.87,0,0,1-4.9,1.86,2.83,2.83,0,0,1-.85-2v-.51H45v5.51a10,10,0,0,1-3.22,7.37h.34a2.76,2.76,0,0,1,2.75,2.75,2.77,2.77,0,0,1-2.75,2.75H16.86a2.75,2.75,0,0,1,0-5.5h.6a10,10,0,0,1-3.22-7.37V34.43a10,10,0,0,1,3.22-7.37H17a2.76,2.76,0,0,1-2.75-2.75A2.77,2.77,0,0,1,17,21.56H42.27A2.76,2.76,0,0,1,45,24.31a2.77,2.77,0,0,1-2.75,2.75H41.8A10,10,0,0,1,45,34.43v5.51H70a2.88,2.88,0,0,1,5.27-.3c5.06-2.1,13.2-3.45,22.37-3.45s17.2,1.34,22.27,3.41h0a2.87,2.87,0,0,1,5.66.71Z"/></g></g></svg>