<svg xmlns="http://www.w3.org/2000/svg" viewBox="0 0 135.73 89.62"><defs><style>.cls-1{fill:#3f4000;}</style></defs><title>terms_right_drabGrowth</title><g id="Layer_2" data-name="Layer 2"><g id="Terms_Conditions_drabGrowth_" data-name="Terms&amp;Conditions (drabGrowth)"><path class="cls-1" d="M123.68,0H12A12.06,12.06,0,0,0,0,12V77.57a12.06,12.06,0,0,0,12,12H123.68a12.06,12.06,0,0,0,12-12V12A12.06,12.06,0,0,0,123.68,0Zm1.82,34.43V54.69a10,10,0,0,1-3.22,7.37h.47a2.76,2.76,0,0,1,2.75,2.75,2.77,2.77,0,0,1-2.75,2.75H97.47a2.76,2.76,0,0,1-2.75-2.75,2.77,2.77,0,0,1,2.75-2.75h.47a10,10,0,0,1-3.22-7.37V49.18h-25a2.88,2.88,0,0,1-5.27.3c-5.06,2.1-13.2,3.45-22.37,3.45s-17.2-1.34-22.27-3.41h0a2.87,2.87,0,0,1-5.66-.71V40.06A2.88,2.88,0,0,1,19,38a2.79,2.79,0,0,1,.76,1.32c5.07-2.08,13.16-3.42,22.27-3.42s17,1.3,22.07,3.33A2.87,2.87,0,0,1,69,37.4a2.83,2.83,0,0,1,.85,2v.51H94.72V34.43a10,10,0,0,1,3.22-7.37H97.6a2.76,2.76,0,0,1-2.75-2.75,2.77,2.77,0,0,1,2.75-2.75h25.28a2.75,2.75,0,0,1,0,5.5h-.6A10,10,0,0,1,125.5,34.43Z"/></g></g></svg>